<svg width="41" height="33" viewBox="0 0 41 33" fill="none" xmlns="http://www.w3.org/2000/svg">
<g id="fa-solid:ambulance" clip-path="url(#clip0_8_2856)">
<path id="Vector" d="M39.3714 22.8168H38.3619V16.0605C38.3619 15.2668 38.0401 14.5043 37.4723 13.9418L31.169 7.69804C30.6012 7.13554 29.8314 6.81679 29.0301 6.81679H26.2476V3.81679C26.2476 2.16054 24.8911 0.816788 23.219 0.816788H3.02857C1.35655 0.816788 0 2.16054 0 3.81679V23.8168C0 25.473 1.35655 26.8168 3.02857 26.8168H4.03809C4.03809 30.1293 6.75119 32.8168 10.0952 32.8168C13.4393 32.8168 16.1524 30.1293 16.1524 26.8168H24.2286C24.2286 30.1293 26.9417 32.8168 30.2857 32.8168C33.6298 32.8168 36.3429 30.1293 36.3429 26.8168H39.3714C39.9267 26.8168 40.381 26.3668 40.381 25.8168V23.8168C40.381 23.2668 39.9267 22.8168 39.3714 22.8168ZM10.0952 29.8168C8.42321 29.8168 7.06667 28.473 7.06667 26.8168C7.06667 25.1605 8.42321 23.8168 10.0952 23.8168C11.7673 23.8168 13.1238 25.1605 13.1238 26.8168C13.1238 28.473 11.7673 29.8168 10.0952 29.8168ZM19.181 14.3168C19.181 14.5918 18.9538 14.8168 18.6762 14.8168H15.1429V18.3168C15.1429 18.5918 14.9157 18.8168 14.6381 18.8168H11.6095C11.3319 18.8168 11.1048 18.5918 11.1048 18.3168V14.8168H7.57143C7.29381 14.8168 7.06667 14.5918 7.06667 14.3168V11.3168C7.06667 11.0418 7.29381 10.8168 7.57143 10.8168H11.1048V7.31679C11.1048 7.04179 11.3319 6.81679 11.6095 6.81679H14.6381C14.9157 6.81679 15.1429 7.04179 15.1429 7.31679V10.8168H18.6762C18.9538 10.8168 19.181 11.0418 19.181 11.3168V14.3168ZM30.2857 29.8168C28.6137 29.8168 27.2571 28.473 27.2571 26.8168C27.2571 25.1605 28.6137 23.8168 30.2857 23.8168C31.9577 23.8168 33.3143 25.1605 33.3143 26.8168C33.3143 28.473 31.9577 29.8168 30.2857 29.8168ZM35.3333 16.8168H26.2476V9.81679H29.0301L35.3333 16.0605V16.8168Z" fill="#455A64" fill-opacity="0.8"/>
</g>
<defs>
<clipPath id="clip0_8_2856">
<rect width="40.381" height="32" fill="white" transform="translate(0 0.816788)"/>
</clipPath>
</defs>
</svg>
