<svg width="40" height="40" viewBox="0 0 40 40" fill="none" xmlns="http://www.w3.org/2000/svg">
<g id="streamline:blood-bag-donation">
<g id="Group">
<path id="Vector" d="M4.28577 22.3943V9.99999C4.28577 7.7267 5.18883 5.54653 6.79628 3.93907C8.40374 2.33162 10.5839 1.42856 12.8572 1.42856H27.1429C29.4162 1.42856 31.5964 2.33162 33.2038 3.93907C34.8113 5.54653 35.7143 7.7267 35.7143 9.99999V22.3943C35.7144 24.1931 35.1485 25.9464 34.0967 27.4058C33.045 28.8652 31.5608 29.9567 29.8543 30.5257L27.1429 31.4286V32.8571C27.1429 33.6149 26.8419 34.3416 26.3061 34.8774C25.7703 35.4133 25.0435 35.7143 24.2858 35.7143H15.7143C14.9566 35.7143 14.2299 35.4133 13.694 34.8774C13.1582 34.3416 12.8572 33.6149 12.8572 32.8571V31.4286L10.1458 30.5257C8.43929 29.9567 6.95508 28.8652 5.90337 27.4058C4.85165 25.9464 4.28573 24.1931 4.28577 22.3943Z" stroke="#99A4B2" stroke-width="1.5" stroke-linecap="round" stroke-linejoin="round"/>
<path id="Vector_2" d="M4.28577 22.9686C6.19148 21.7 12.0001 19.9229 20.0001 22.9686C28.0001 26.0114 33.8086 23.6029 35.7143 22.0171M20.0001 35.7143V38.5714M23.1943 13.3171C23.1943 11.5171 20.0001 7.06 20.0001 7.06C20.0001 7.06 16.8001 11.52 16.8001 13.32C16.8001 14.2057 17.1372 15.0514 17.7372 15.6771C18.3372 16.3 19.1486 16.6514 19.9943 16.6514C20.4177 16.6498 20.8364 16.5627 21.2252 16.3953C21.6141 16.2278 21.9651 15.9836 22.2572 15.6771C22.8609 15.0413 23.1956 14.1968 23.1915 13.32L23.1943 13.3171Z" stroke="#99A4B2" stroke-width="1.5" stroke-linecap="round" stroke-linejoin="round"/>
</g>
</g>
</svg>
