<svg width="43" height="42" viewBox="0 0 43 42" fill="none" xmlns="http://www.w3.org/2000/svg">
<rect width="43" height="42" fill="#F5F5F5"/>
<g id="iPhone 13 &#38; 14 - 8" clip-path="url(#clip0_8_1955)">
<rect width="390" height="844" transform="translate(-31 -266)" fill="white"/>
<ellipse id="Ellipse 3" cx="328" cy="249.5" rx="328" ry="249.5" transform="matrix(1 0 0 -1 -164 153)" fill="#C44A55"/>
<g id="Group 8">
<g id="Rectangle 84">
<mask id="path-2-inside-1_8_1955" fill="white">
<path d="M-19 -29H339C343.418 -29 347 -25.4183 347 -21V63C347 67.4183 343.418 71 339 71H-19V-29Z"/>
</mask>
<path d="M-19 -29H339C343.418 -29 347 -25.4183 347 -21V63C347 67.4183 343.418 71 339 71H-19V-29Z" fill="white"/>
<path d="M-19 -29H347H-19ZM347 71H-19H347ZM-24 71V-29H-14V71H-24ZM347 -29V71V-29Z" fill="#F7FF95" mask="url(#path-2-inside-1_8_1955)"/>
</g>
<g id="Frame 335">
<g id="Frame 334">
<path id="Vector" d="M14.6585 10.2561V0.5M34.1707 10.2561V0.5M41.9756 31.7195V40.5H6.85366V34.6463M41.7083 15.1341H6.56488M1 34.1585V34.6463H35.9268L36.2195 34.1585L36.6761 33.2005C40.1652 25.8672 41.9756 17.8483 41.9756 9.72732V5.37805H6.85366V9.53024C6.85374 17.714 5.0153 25.7933 1.47415 33.1712L1 34.1585Z" stroke="#455A64" stroke-width="2"/>
</g>
</g>
</g>
</g>
<defs>
<clipPath id="clip0_8_1955">
<rect width="390" height="844" fill="white" transform="translate(-31 -266)"/>
</clipPath>
</defs>
</svg>
