<svg width="41" height="37" viewBox="0 0 41 37" fill="none" xmlns="http://www.w3.org/2000/svg">
<g id="fa-solid:hand-holding-water" clip-path="url(#clip0_8_2841)">
<path id="Vector" d="M20.25 18.9086C23.9766 18.9086 27 15.9484 27 12.2992C27 9.48671 22.9852 3.81249 21.15 1.35858C20.7 0.760925 19.8 0.760925 19.35 1.35858C17.5148 3.81249 13.5 9.48671 13.5 12.2992C13.5 15.9484 16.5234 18.9086 20.25 18.9086ZM39.7477 23.9781C38.918 23.2258 37.6242 23.275 36.7523 23.9781L30.2555 29.1742C29.4609 29.814 28.4695 30.1586 27.443 30.1586H19.125C18.5063 30.1586 18 29.6523 18 29.0336C18 28.4148 18.5063 27.9086 19.125 27.9086H24.6305C25.7484 27.9086 26.7891 27.1422 26.9719 26.0383C27.2039 24.632 26.1211 23.4086 24.75 23.4086H13.5C11.6016 23.4086 9.76641 24.0625 8.28984 25.2578L5.02031 27.9086H1.125C0.50625 27.9086 0 28.4148 0 29.0336V35.7836C0 36.4023 0.50625 36.9086 1.125 36.9086H26.2125C27.232 36.9086 28.2234 36.564 29.025 35.9242L39.6562 27.4164C40.725 26.5656 40.8094 24.9344 39.7477 23.9781Z" fill="#455A64" fill-opacity="0.8"/>
</g>
<defs>
<clipPath id="clip0_8_2841">
<rect width="40.5" height="36" fill="white" transform="translate(0 0.908386)"/>
</clipPath>
</defs>
</svg>
