<svg width="28" height="28" viewBox="0 0 28 28" fill="none" xmlns="http://www.w3.org/2000/svg">
<g id="healthicons:blood-a-p">
<g id="Group">
<path id="Vector" fill-rule="evenodd" clip-rule="evenodd" d="M11.6667 5.83333C11.7818 5.83332 11.8944 5.86738 11.9902 5.93122C12.086 5.99506 12.1608 6.08582 12.2051 6.19208L14.3879 11.4304L14.3978 11.4549L15.1218 13.1921C15.1813 13.3349 15.1817 13.4955 15.1229 13.6386C15.064 13.7817 14.9507 13.8955 14.8079 13.9551C14.6651 14.0146 14.5045 14.015 14.3614 13.9562C14.2183 13.8973 14.1045 13.784 14.0449 13.6412L13.4651 12.25H9.86825L9.28842 13.6412C9.22886 13.784 9.11501 13.8973 8.97192 13.9562C8.82883 14.015 8.66822 14.0146 8.52542 13.9551C8.38262 13.8955 8.26934 13.7817 8.21048 13.6386C8.15163 13.4955 8.15202 13.3349 8.21159 13.1921L8.9355 11.4549L8.946 11.4304L11.1277 6.19208C11.172 6.08573 11.2469 5.9949 11.3428 5.93106C11.4388 5.86721 11.5514 5.8332 11.6667 5.83333ZM12.9792 11.0833L11.6667 7.93333L10.3542 11.0833H12.9792Z" fill="white"/>
<path id="Vector_2" d="M15.75 9.33333C15.5953 9.33333 15.4469 9.39479 15.3375 9.50418C15.2281 9.61358 15.1667 9.76195 15.1667 9.91666C15.1667 10.0714 15.2281 10.2197 15.3375 10.3291C15.4469 10.4385 15.5953 10.5 15.75 10.5H16.9167V11.6667C16.9167 11.8214 16.9781 11.9697 17.0875 12.0791C17.1969 12.1885 17.3453 12.25 17.5 12.25C17.6547 12.25 17.8031 12.1885 17.9125 12.0791C18.0219 11.9697 18.0834 11.8214 18.0834 11.6667V10.5H19.25C19.4047 10.5 19.5531 10.4385 19.6625 10.3291C19.7719 10.2197 19.8334 10.0714 19.8334 9.91666C19.8334 9.76195 19.7719 9.61358 19.6625 9.50418C19.5531 9.39479 19.4047 9.33333 19.25 9.33333H18.0834V8.16666C18.0834 8.01195 18.0219 7.86358 17.9125 7.75418C17.8031 7.64479 17.6547 7.58333 17.5 7.58333C17.3453 7.58333 17.1969 7.64479 17.0875 7.75418C16.9781 7.86358 16.9167 8.01195 16.9167 8.16666V9.33333H15.75Z" fill="white"/>
<path id="Vector_3" fill-rule="evenodd" clip-rule="evenodd" d="M5.83334 19.8508C5.83334 21.1301 6.87751 22.1667 8.16668 22.1667H10.5V23.3333H13.4167V25.6667H14.5833V23.3333H17.5V22.1667H19.8333C21.1225 22.1667 22.1667 21.1301 22.1667 19.8508V6.02466C22.1667 4.74599 21.1225 3.70883 19.8333 3.70883H16.3333L15.673 3.03508C15.4547 2.81299 15.1943 2.6366 14.907 2.51619C14.6198 2.39578 14.3115 2.33377 14 2.33377C13.6886 2.33377 13.3802 2.39578 13.093 2.51619C12.8058 2.6366 12.5454 2.81299 12.327 3.03508L11.6667 3.70883H8.16668C6.87751 3.70883 5.83334 4.74541 5.83334 6.02466V19.8508ZM16.3333 4.87608C16.1781 4.87613 16.0244 4.8452 15.8813 4.7851C15.7381 4.725 15.6084 4.63694 15.4998 4.52608L14.84 3.85116C14.7303 3.73994 14.5996 3.65162 14.4555 3.59135C14.3114 3.53107 14.1568 3.50003 14.0006 3.50003C13.8444 3.50003 13.6897 3.53107 13.5456 3.59135C13.4015 3.65162 13.2709 3.73994 13.1612 3.85116L12.5008 4.52549C12.3922 4.63636 12.2625 4.72442 12.1193 4.78452C11.9762 4.84462 11.8225 4.87555 11.6673 4.87549H8.16726C7.51393 4.87549 7.00059 5.39816 7.00059 6.02466V16.8992C7.72022 16.8914 8.43993 16.9031 9.15893 16.9342L9.46809 16.9458C10.2171 16.9738 10.9153 17.0001 11.5984 16.9861C13.1308 16.9534 14.5396 16.7142 16.0376 15.8305C17.8564 14.7572 19.3964 15.0792 20.461 15.6987C20.6582 15.8136 20.8384 15.9378 21.0006 16.0638V6.02408C21.0006 5.39816 20.4873 4.87491 19.8339 4.87491H16.3339L16.3333 4.87608Z" fill="white"/>
</g>
</g>
</svg>
