<svg width="40" height="40" viewBox="0 0 40 40" fill="none" xmlns="http://www.w3.org/2000/svg">
<g id="material-symbols-light:history">
<path id="Vector" d="M19.9367 33.3333C16.5511 33.3333 13.6006 32.2278 11.085 30.0167C8.56945 27.8078 7.11334 25.0244 6.71667 21.6667H8.40167C8.85501 24.5333 10.1611 26.9167 12.32 28.8167C14.4811 30.7167 17.02 31.6667 19.9367 31.6667C23.1867 31.6667 25.9433 30.5344 28.2067 28.27C30.47 26.0055 31.6022 23.2489 31.6033 20C31.6033 16.75 30.4711 13.9928 28.2067 11.7283C25.9422 9.46388 23.1856 8.33221 19.9367 8.33332C18.2122 8.33332 16.5911 8.69777 15.0733 9.42666C13.5567 10.1555 12.2178 11.1589 11.0567 12.4367H15.1917V14.1033H8.27001V7.17999H9.93667V11.16C11.2256 9.74555 12.7356 8.64332 14.4667 7.85332C16.1978 7.06221 18.0211 6.66666 19.9367 6.66666C21.7845 6.66666 23.5167 7.01443 25.1333 7.70999C26.75 8.40555 28.1622 9.35721 29.37 10.565C30.5778 11.7728 31.53 13.1855 32.2267 14.8033C32.9222 16.42 33.27 18.1522 33.27 20C33.27 21.8478 32.9222 23.58 32.2267 25.1967C31.5311 26.8133 30.5789 28.2261 29.37 29.435C28.1622 30.6428 26.75 31.5944 25.1333 32.29C23.5167 32.9855 21.7845 33.3333 19.9367 33.3333ZM25.275 26.4233L19.1983 20.3467V11.6667H20.865V19.6533L26.455 25.2433L25.275 26.4233Z" fill="white"/>
</g>
</svg>
