<svg width="20" height="20" viewBox="0 0 20 20" fill="none" xmlns="http://www.w3.org/2000/svg">
<path d="M10.0001 1.66666C6.77508 1.66666 4.16675 4.27499 4.16675 7.49999C4.16675 11.875 10.0001 18.3333 10.0001 18.3333C10.0001 18.3333 15.8334 11.875 15.8334 7.49999C15.8334 4.27499 13.2251 1.66666 10.0001 1.66666ZM10.0001 9.58332C9.44755 9.58332 8.91764 9.36383 8.52694 8.97313C8.13624 8.58243 7.91675 8.05252 7.91675 7.49999C7.91675 6.94746 8.13624 6.41755 8.52694 6.02685C8.91764 5.63615 9.44755 5.41666 10.0001 5.41666C10.5526 5.41666 11.0825 5.63615 11.4732 6.02685C11.8639 6.41755 12.0834 6.94746 12.0834 7.49999C12.0834 8.05252 11.8639 8.58243 11.4732 8.97313C11.0825 9.36383 10.5526 9.58332 10.0001 9.58332Z" fill="#C44A55"/>
</svg>
