
<svg width="20" height="22" viewBox="0 0 20 22" fill="none" xmlns="http://www.w3.org/2000/svg">
<path id="Vector" d="M10.9453 1.46044e-07H8.54688C8.07609 -0.000157341 7.61402 0.127058 7.20966 0.368163C6.8053 0.609269 6.4737 0.955282 6.25 1.36953V9.46094H13.2938V1.48594C13.0827 1.04164 12.7501 0.666232 12.3345 0.403238C11.9188 0.140244 11.4372 0.000429456 10.9453 1.46044e-07ZM11.4688 6.92969H10.7109V7.6875C10.7109 7.94236 10.6097 8.18678 10.4295 8.36699C10.2493 8.5472 10.0049 8.64844 9.75 8.64844C9.49514 8.64844 9.25073 8.5472 9.07051 8.36699C8.8903 8.18678 8.78906 7.94236 8.78906 7.6875V6.92969H8.03125C7.51562 6.92969 7.09531 6.525 7.07188 6.01484C7.08091 5.76567 7.18568 5.52958 7.36437 5.35569C7.54306 5.1818 7.78192 5.0835 8.03125 5.08125H8.78906V4.30781C8.78906 3.76484 9.21875 3.32656 9.75 3.32656C10.2812 3.32656 10.7109 3.76484 10.7109 4.30781V5.08125H11.4688C11.9844 5.08125 12.4047 5.50156 12.4289 6.01484C12.4171 6.26149 12.3107 6.49412 12.1319 6.66445C11.9532 6.83479 11.7157 6.92977 11.4688 6.92969ZM17.8047 9.46094H14.075V1.66484C16.2188 2.2625 17.7984 4.26641 17.8047 6.64297V9.45938V9.46094ZM5.46875 9.46094V1.64844C3.29062 2.225 1.6875 4.24453 1.6875 6.64297V9.45938H5.46875V9.46094ZM1.63281 10.2031H17.8438C18.75 10.2031 19.4766 10.9297 19.4766 11.8359C19.4766 12.7344 18.7422 13.4688 17.8438 13.4688H16.2906V14.8672C16.2906 16.3422 15.8031 17.7031 14.9797 18.7984C15.0805 19.1477 14.9937 19.5398 14.7195 19.8156C14.0684 20.4731 13.2932 20.9948 12.439 21.3505C11.5847 21.7061 10.6683 21.8887 9.74297 21.8875C8.81837 21.8871 7.90294 21.7042 7.0492 21.3492C6.19547 20.9942 5.42023 20.4741 4.76797 19.8188C4.63675 19.6878 4.5431 19.5241 4.49679 19.3446C4.45047 19.1651 4.4532 18.9765 4.50469 18.7984C3.65178 17.6655 3.19154 16.2853 3.19375 14.8672V13.4688H1.63281C0.734375 13.4688 0 12.7344 0 11.8359C0 10.9375 0.734375 10.2031 1.63281 10.2031ZM15.1625 14.8672V13.4688H4.32187V14.8672C4.32187 16.0609 4.70781 17.1641 5.36172 18.0594C5.67109 18.018 5.99453 18.1164 6.23203 18.3539C6.69199 18.8168 7.23887 19.1842 7.84126 19.435C8.44364 19.6859 9.08966 19.8152 9.74219 19.8156C11.1125 19.8156 12.3508 19.2609 13.25 18.3563C13.4867 18.1172 13.8125 18.018 14.1227 18.0594C14.7997 17.1329 15.1636 16.0147 15.1617 14.8672H15.1625Z" fill="#C44A55"/>
</svg>
