<svg width="33" height="32" viewBox="0 0 33 32" fill="none" xmlns="http://www.w3.org/2000/svg">
<g id="healthicons:ui-user-profile-outline">
<g id="Group">
<path id="Vector" fill-rule="evenodd" clip-rule="evenodd" d="M16.5 18C17.9144 18 19.271 17.4381 20.2712 16.4379C21.2714 15.4377 21.8333 14.0811 21.8333 12.6666C21.8333 11.2522 21.2714 9.8956 20.2712 8.89541C19.271 7.89522 17.9144 7.33331 16.5 7.33331C15.0855 7.33331 13.7289 7.89522 12.7287 8.89541C11.7285 9.8956 11.1666 11.2522 11.1666 12.6666C11.1666 14.0811 11.7285 15.4377 12.7287 16.4379C13.7289 17.4381 15.0855 18 16.5 18ZM16.5 16.6666C17.0252 16.6666 17.5454 16.5632 18.0307 16.3622C18.516 16.1611 18.957 15.8665 19.3284 15.4951C19.6998 15.1236 19.9945 14.6827 20.1955 14.1974C20.3965 13.7121 20.5 13.1919 20.5 12.6666C20.5 12.1414 20.3965 11.6212 20.1955 11.1359C19.9945 10.6506 19.6998 10.2097 19.3284 9.83822C18.957 9.46678 18.516 9.17215 18.0307 8.97113C17.5454 8.77011 17.0252 8.66665 16.5 8.66665C15.4391 8.66665 14.4217 9.08807 13.6715 9.83822C12.9214 10.5884 12.5 11.6058 12.5 12.6666C12.5 13.7275 12.9214 14.7449 13.6715 15.4951C14.4217 16.2452 15.4391 16.6666 16.5 16.6666Z" fill="#99A4B2"/>
<path id="Vector_2" fill-rule="evenodd" clip-rule="evenodd" d="M29.8333 16C29.8333 23.364 23.864 29.3333 16.5 29.3333C9.13596 29.3333 3.16663 23.364 3.16663 16C3.16663 8.63599 9.13596 2.66666 16.5 2.66666C23.864 2.66666 29.8333 8.63599 29.8333 16ZM22.92 26.14C21.0006 27.3584 18.7734 28.0036 16.5 28C14.1721 28.0037 11.8938 27.3271 9.94529 26.0533C9.78529 25.8533 9.62329 25.6467 9.45863 25.4333C9.26831 25.1833 9.16569 24.8775 9.16663 24.5633C9.16663 23.8453 9.68263 23.2433 10.3726 23.1427C14.936 22.476 18.078 22.5333 22.6473 23.166C22.9782 23.214 23.2806 23.38 23.4986 23.6336C23.7166 23.8871 23.8355 24.211 23.8333 24.5453C23.8333 24.8653 23.7233 25.176 23.5246 25.4187C23.32 25.668 23.118 25.9087 22.92 26.14ZM25.1566 24.3107C25.05 23.0627 24.1026 22.0213 22.83 21.8453C18.1526 21.198 14.8833 21.136 10.18 21.8233C8.89996 22.01 7.95663 23.0607 7.84463 24.312C5.69484 22.0794 4.49572 19.0994 4.49996 16C4.49996 9.37266 9.87263 3.99999 16.5 3.99999C23.1273 3.99999 28.5 9.37266 28.5 16C28.5042 19.0987 27.3056 22.0782 25.1566 24.3107Z" fill="#99A4B2"/>
</g>
</g>
</svg>
